<svg width="171" height="38" viewBox="0 0 171 38" fill="none" xmlns="http://www.w3.org/2000/svg">
<g clip-path="url(#clip0_17_1063)">
<path d="M41.5963 1.74799C40.4875 0.665315 38.9949 0.0593285 37.4405 0.0607937H24.3423C22.7879 0.0593285 21.2953 0.665315 20.1865 1.74799L0.22939 21.318C0.0867065 21.4576 0.00477198 21.6472 0.00119777 21.8461C-0.00237644 22.0451 0.0726877 22.2375 0.210267 22.382L4.67958 27.0788C4.75189 27.1538 4.83842 27.2139 4.9342 27.2554C5.02998 27.297 5.13311 27.3194 5.23761 27.3211C5.34212 27.3229 5.44593 27.3041 5.54308 27.2657C5.64022 27.2274 5.72877 27.1703 5.8036 27.0978L30.8914 2.489L55.9792 27.0902C56.054 27.1627 56.1426 27.2198 56.2397 27.2581C56.3369 27.2965 56.4407 27.3153 56.5452 27.3135C56.6497 27.3118 56.7528 27.2894 56.8486 27.2479C56.9444 27.2063 57.0309 27.1462 57.1032 27.0712L61.5725 22.3744C61.7126 22.2323 61.7911 22.0413 61.7911 21.8424C61.7911 21.6435 61.7126 21.4525 61.5725 21.3104L41.5963 1.74799Z" fill="#75C044"/>
<path d="M37.4405 17.4534H24.3423C22.7869 17.4526 21.2933 18.0584 20.1826 19.1406L8.78953 30.3126C8.64684 30.4522 8.56492 30.6418 8.56135 30.8407C8.55777 31.0397 8.63284 31.2321 8.77042 31.3766L13.2397 36.0734C13.3118 36.1489 13.3982 36.2093 13.494 36.2512C13.5898 36.2931 13.6931 36.3156 13.7977 36.3174C13.9024 36.3191 14.0063 36.3001 14.1035 36.2615C14.2007 36.2229 14.2892 36.1654 14.3638 36.0924L26.7509 23.9324V37.2324C26.7509 37.434 26.8315 37.6273 26.9749 37.7698C27.1183 37.9123 27.3127 37.9924 27.5155 37.9924H34.2482C34.451 37.9924 34.6455 37.9123 34.7889 37.7698C34.9323 37.6273 35.0128 37.434 35.0128 37.2324V23.9324L47.4038 36.0924C47.478 36.1653 47.5662 36.2227 47.663 36.2613C47.7599 36.2999 47.8636 36.3188 47.9679 36.317C48.0722 36.3153 48.1752 36.2928 48.2707 36.251C48.3662 36.2091 48.4523 36.1488 48.524 36.0734L53.0086 31.369C53.1462 31.2245 53.2212 31.0321 53.2177 30.8331C53.2141 30.6342 53.1322 30.4446 52.9895 30.305L41.5964 19.133C40.4875 18.0503 38.9949 17.4443 37.4405 17.4458" fill="#75C044"/>
<path d="M139.864 10.507H136.614C136.614 8.6602 135.016 7.4252 132.11 7.4252C129.484 7.4252 127.691 8.4322 127.691 9.937C127.691 11.647 129.985 11.9966 132.019 12.3158L133.231 12.5058C136.266 12.9808 140.533 13.6458 140.533 18.0196C140.533 21.5802 137.7 23.5828 132.416 23.5828C126.907 23.5828 124.116 21.4092 124.116 17.5028H127.381C127.381 19.5814 128.995 20.7366 132.416 20.7366C135.505 20.7366 137.299 19.8018 137.299 18.1184C137.299 16.1462 134.856 15.713 132.508 15.3102L131.3 15.105C128.54 14.6414 124.449 13.965 124.449 10.0244C124.449 6.70319 127.366 4.5752 132.122 4.5752C137.069 4.5752 139.875 6.8818 139.875 10.5222" fill="#606161"/>
<path d="M82.5581 4.65878C77.3967 4.65878 74.147 7.31879 74.147 11.5406H77.5305C77.5305 9.23019 79.0789 7.71018 82.5007 7.71018C85.8383 7.71018 87.9296 9.61019 87.9296 12.6122V13.0378H80.8109C76.3607 13.0378 73.6156 15.105 73.6156 18.4566C73.6156 21.8082 76.2918 23.9818 80.333 23.9818C83.4412 23.9818 85.8613 22.7734 87.1612 20.5238C87.2057 20.446 87.2747 20.3851 87.3576 20.3503C87.4405 20.3155 87.5326 20.3088 87.6197 20.3313C87.7068 20.3538 87.784 20.4042 87.8393 20.4748C87.8947 20.5453 87.925 20.632 87.9258 20.7214V23.484H91.3132V12.6122C91.3132 7.63419 88.0176 4.65878 82.5581 4.65878ZM87.9105 16.3704C87.9105 19.1064 85.1425 21.0482 81.2276 21.0482C78.4672 21.0482 76.9456 20.0868 76.9456 18.3388C76.9456 16.7276 78.2684 15.865 80.7688 15.865H87.9182L87.9105 16.3704Z" fill="#606161"/>
<path d="M151.387 4.16101C146.035 4.16101 142.433 8.02561 142.433 13.794C142.433 19.5624 146.069 23.484 151.486 23.484C155.81 23.484 158.995 21.0178 159.951 16.91H156.571C155.669 19.247 154.021 20.444 151.571 20.444C148.581 20.444 146.539 18.6466 145.977 15.6522C145.965 15.5775 145.969 15.5011 145.99 15.4282C146.01 15.3553 146.047 15.2877 146.096 15.2302C146.146 15.1727 146.207 15.1266 146.276 15.0951C146.346 15.0637 146.421 15.0476 146.497 15.048H159.985C160.016 14.5578 160.043 14.1664 160.043 13.7446C160.043 7.90021 156.663 4.16101 151.387 4.16101ZM155.91 12.141H146.6C146.519 12.1401 146.439 12.1209 146.367 12.0847C146.294 12.0486 146.231 11.9966 146.181 11.9325C146.132 11.8684 146.098 11.794 146.082 11.7149C146.066 11.6358 146.068 11.5541 146.088 11.476C146.761 8.79321 148.673 7.20101 151.402 7.20101C154.132 7.20101 155.83 8.72101 156.422 11.4912C156.441 11.5684 156.441 11.6487 156.424 11.7261C156.407 11.8036 156.373 11.8762 156.323 11.9386C156.274 12.001 156.211 12.0517 156.14 12.0867C156.068 12.1217 155.99 12.1403 155.91 12.141Z" fill="#606161"/>
<path d="M122.216 19.3116V13.2316C122.216 7.91159 119.922 4.655 116.022 4.655C113.182 4.655 111.029 6.403 110.02 9.3442C109.991 9.42123 109.938 9.48753 109.87 9.53431C109.802 9.58109 109.721 9.60614 109.638 9.60614C109.555 9.60614 109.474 9.58109 109.406 9.53431C109.337 9.48753 109.285 9.42123 109.255 9.3442C108.368 6.3764 106.38 4.67019 103.567 4.67019C101.139 4.67019 99.2081 5.9584 98.0688 8.1814C98.0272 8.26081 97.9601 8.32419 97.8782 8.36151C97.7963 8.39883 97.7043 8.40797 97.6166 8.38748C97.5289 8.367 97.4506 8.31806 97.394 8.24839C97.3374 8.17873 97.3058 8.09232 97.3041 8.0028V5.14899H93.9167V23.4764H97.3041V13.5698C97.3041 9.861 99.1201 7.70259 102.163 7.70259C104.989 7.70259 106.369 9.56459 106.369 13.2354V23.4954H109.756V13.5698C109.756 9.861 111.572 7.70259 114.616 7.70259C117.441 7.70259 118.821 9.56459 118.821 13.2354V23.4954H122.208L122.216 19.3116Z" fill="#606161"/>
<path d="M167.005 6.76779H170.966V3.72779H167.005C166.866 3.72779 166.733 3.67294 166.634 3.57531C166.536 3.47767 166.481 3.34526 166.481 3.20719V0.00378418H163.067V18.3654C163.067 19.0384 163.2 19.7048 163.46 20.3265C163.719 20.9482 164.099 21.5131 164.578 21.9888C165.057 22.4645 165.625 22.8418 166.251 23.099C166.877 23.3562 167.547 23.4883 168.224 23.4878H170.966V20.0982H168.228C167.766 20.0982 167.322 19.9156 166.995 19.5907C166.668 19.2657 166.485 18.825 166.485 18.3654V7.29219C166.484 7.22351 166.497 7.15539 166.524 7.09179C166.55 7.02819 166.588 6.97036 166.637 6.92161C166.686 6.87286 166.743 6.83418 166.807 6.80778C166.871 6.78138 166.94 6.76779 167.009 6.76779" fill="#606161"/>
<path d="M75.554 31.6426C75.6315 31.7105 75.6962 31.7916 75.7451 31.882L76.6703 33.3336H75.8484L75.0493 32.0074C74.9308 31.806 74.862 31.7148 74.6096 31.7148H74.3267V33.3336H73.6156V29.4272H75.0378C75.8025 29.4272 76.3836 29.7768 76.3836 30.59C76.3865 30.8331 76.3059 31.07 76.1551 31.2614C76.0042 31.4528 75.7922 31.5873 75.554 31.6426ZM75.0416 30.1036H74.3267V31.0954H75.0416C75.3972 31.0954 75.6725 30.9966 75.6725 30.59C75.6725 30.1834 75.3857 30.1036 75.0416 30.1036Z" fill="#606161"/>
<path d="M83.8465 33.3336H81.1855V29.4234H83.8465V30.1188H81.8966V30.9928H83.598V31.654H81.8966V32.6382H83.8465V33.3336Z" fill="#606161"/>
<path d="M91.3782 30.1188H90.2465V33.3336H89.5354V30.1188H88.4037V29.4234H91.3782V30.1188Z" fill="#606161"/>
<path d="M98.8257 33.3336H98.0611L97.6788 32.3152H96.2986L95.9163 33.3336H95.1517L96.6618 29.4234H97.2965L98.8257 33.3336ZM97.457 31.6996L96.9906 30.438L96.528 31.6996H97.457Z" fill="#606161"/>
<path d="M104.021 29.4234H103.31V33.3298H104.021V29.4234Z" fill="#606161"/>
<path d="M111.32 33.3336H108.892V29.4234H109.596V32.6534H111.32V33.3336Z" fill="#606161"/>
<path d="M125.003 33.3336H124.239L123.856 32.3152H122.472L122.09 33.3336H121.325L122.835 29.4234H123.47L125.003 33.3336ZM123.634 31.6996L123.176 30.438L122.713 31.6996H123.634Z" fill="#606161"/>
<path d="M132.244 32.68C132.099 32.9071 131.896 33.0918 131.656 33.2153C131.415 33.3388 131.146 33.3967 130.876 33.383C129.729 33.383 129.19 32.4254 129.19 31.3804C129.19 30.3354 129.702 29.374 130.876 29.374C131.137 29.3645 131.398 29.42 131.633 29.5355C131.868 29.6509 132.07 29.8226 132.221 30.0352L131.72 30.5216C131.625 30.3858 131.499 30.2742 131.352 30.1957C131.205 30.1172 131.042 30.0739 130.876 30.0694C130.13 30.0694 129.912 30.7762 129.912 31.3804C129.912 31.9846 130.13 32.6876 130.876 32.6876C131.049 32.6838 131.22 32.6375 131.371 32.5526C131.522 32.4677 131.65 32.347 131.743 32.2012L132.244 32.68Z" fill="#606161"/>
<path d="M140.132 33.3336H139.367L138.985 32.3152H137.601L137.218 33.3336H136.454L137.983 29.4234H138.621L140.132 33.3336ZM138.763 31.6996L138.293 30.438L137.83 31.6996H138.763Z" fill="#606161"/>
<path d="M145.706 33.3336H144.586V29.4272H145.694C147.224 29.4272 147.537 29.9288 147.537 31.3804C147.537 32.832 147.227 33.3336 145.694 33.3336M146.704 30.4C146.574 30.1872 146.321 30.1188 145.851 30.1188H145.297V32.6382H145.851C146.325 32.6382 146.581 32.566 146.707 32.3494C146.824 32.0418 146.865 31.7107 146.826 31.3842C146.865 31.0511 146.823 30.7137 146.704 30.4Z" fill="#606161"/>
<path d="M154.95 33.3336H152.289V29.4234H154.95V30.1188H153V30.9928H154.702V31.654H153V32.6382H154.95V33.3336Z" fill="#606161"/>
<path d="M163.205 33.3336H162.486V31.2322L161.648 33.3336H161.186L160.352 31.2398V33.3336H159.637V29.4234H160.318L161.415 32.205L162.532 29.4234H163.205V33.3336Z" fill="#606161"/>
<path d="M171 29.4234L169.7 32.0454V33.3336H168.989V32.034L167.681 29.4234H168.477L169.348 31.2436L170.209 29.4234H171Z" fill="#606161"/>
</g>
<defs>
<clipPath id="clip0_17_1063">
<rect width="171" height="38" fill="white"/>
</clipPath>
</defs>
</svg>
