<svg width="62" height="38" viewBox="0 0 62 38" fill="none" xmlns="http://www.w3.org/2000/svg">
<path d="M41.5953 1.6872C40.4864 0.604524 38.9938 -0.0014625 37.4395 2.65063e-06H24.3412C22.7868 -0.0014625 21.2942 0.604524 20.1854 1.6872L0.228314 21.2572C0.0856308 21.3968 0.00369624 21.5864 0.000122029 21.7853C-0.00345218 21.9843 0.071612 22.1767 0.209191 22.3212L4.67851 27.018C4.75081 27.093 4.83735 27.1531 4.93312 27.1947C5.0289 27.2362 5.13203 27.2586 5.23654 27.2603C5.34104 27.2621 5.44486 27.2433 5.542 27.205C5.63915 27.1666 5.7277 27.1095 5.80253 27.037L30.8903 2.42821L55.9781 27.0294C56.0529 27.1019 56.1415 27.159 56.2386 27.1973C56.3358 27.2357 56.4396 27.2545 56.5441 27.2527C56.6486 27.251 56.7517 27.2287 56.8475 27.1871C56.9433 27.1455 57.0298 27.0854 57.1021 27.0104L61.5714 22.3136C61.7116 22.1715 61.79 21.9805 61.79 21.7816C61.79 21.5827 61.7116 21.3917 61.5714 21.2496L41.5953 1.6872Z" fill="#75C044"/>
<path d="M37.8793 17.3926H24.7811C23.2257 17.3918 21.7321 17.9976 20.6214 19.0798L9.2283 30.2518C9.08562 30.3914 9.0037 30.581 9.00012 30.7799C8.99655 30.9789 9.07161 31.1713 9.20919 31.3158L13.6785 36.0126C13.7505 36.0881 13.837 36.1485 13.9328 36.1904C14.0286 36.2323 14.1318 36.2548 14.2365 36.2566C14.3412 36.2583 14.4451 36.2394 14.5423 36.2007C14.6395 36.1621 14.728 36.1046 14.8025 36.0316L27.1897 23.8716V37.1716C27.1897 37.3732 27.2702 37.5665 27.4136 37.709C27.557 37.8515 27.7515 37.9316 27.9543 37.9316H34.6869C34.8897 37.9316 35.0842 37.8515 35.2276 37.709C35.371 37.5665 35.4516 37.3732 35.4516 37.1716V23.8716L47.8426 36.0316C47.9168 36.1045 48.005 36.1619 48.1018 36.2005C48.1987 36.2391 48.3023 36.258 48.4067 36.2563C48.511 36.2545 48.6139 36.232 48.7094 36.1902C48.8049 36.1483 48.891 36.088 48.9628 36.0126L53.4474 31.3082C53.5849 31.1637 53.66 30.9713 53.6564 30.7723C53.6529 30.5734 53.5709 30.3838 53.4282 30.2442L42.0351 19.0722C40.9263 17.9895 39.4337 17.3835 37.8793 17.385" fill="#75C044"/>
</svg>
